<svg id="Слой_1" data-name="Слой 1" xmlns="http://www.w3.org/2000/svg" viewBox="0 0 36.57 36.57"><defs><style>.cls-1{fill:#ffb000;opacity:0.8;}</style></defs><path class="cls-1" d="M18.29,34.57A16.29,16.29,0,1,1,34.57,18.29,16.3,16.3,0,0,1,18.29,34.57Z"/><rect x="18.29" y="20.29" width="2" height="2"/><rect x="22.29" y="20.29" width="2" height="2"/><path d="M19.24,12.89l-4.21,3-.84-7.6H9.34l-1.11,20H28.29V12.7L21.4,16Zm-8.89,13.4.89-16h1.15l1.78,16Zm15.94,0H16.19l-.9-8.17,3.45-2.43,2,2.88,5.55-2.69Z"/><path d="M18.29,0A18.29,18.29,0,1,0,36.57,18.29,18.3,18.3,0,0,0,18.29,0Zm0,34.57A16.29,16.29,0,1,1,34.57,18.29,16.3,16.3,0,0,1,18.29,34.57Z"/></svg>